<svg xmlns="http://www.w3.org/2000/svg" viewBox="0 0 420 260"><rect width="420" height="260" fill="#e8dfd1"/><g fill="#17191b"><path d="M56 0c61 29 96 84 103 166 5 61-36 86-81 94H0V0z" opacity=".75"/><path d="M210 48c58 8 107 39 146 94 27 37 44 76 64 118H261c-22-44-48-83-78-119-21-26-12-83 27-93z" opacity=".7"/><circle cx="193" cy="178" r="37" opacity=".9"/></g><g fill="#efe4d0" opacity=".52"><path d="M134 0c29 42 35 85 18 132-15 43-45 62-89 56 45-35 68-98 71-188z"/><path d="M315 0c12 60 9 110-10 151-18 40-51 54-99 43 52-44 82-109 109-194z"/></g></svg>
